<svg width="24" height="19" viewBox="0 0 24 19" fill="none" xmlns="http://www.w3.org/2000/svg">
<path id="Vector" d="M13.8191 18.7027C13.6292 18.5121 13.5225 18.2537 13.5225 17.9843C13.5225 17.7149 13.6292 17.4566 13.8191 17.266L20.5394 10.5295L1.01412 10.5295C0.745161 10.5295 0.487213 10.4224 0.297029 10.2318C0.106844 10.0411 -4.27609e-07 9.78256 -4.15824e-07 9.51295C-4.04039e-07 9.24334 0.106844 8.98478 0.297029 8.79413C0.487213 8.60349 0.745161 8.49639 1.01412 8.49639L20.5394 8.49639L13.8191 1.75995C13.6856 1.6357 13.588 1.47765 13.5366 1.30246C13.4852 1.12728 13.4819 0.941436 13.527 0.764521C13.5722 0.587606 13.6641 0.426168 13.793 0.297213C13.922 0.168259 14.0833 0.0765635 14.2599 0.0317884C14.4362 -0.0135052 14.6214 -0.0103453 14.7961 0.0409358C14.9707 0.0922168 15.1283 0.189724 15.2524 0.323203L23.7034 8.79458C23.8933 8.98519 24 9.24356 24 9.51295C24 9.78234 23.8933 10.0407 23.7034 10.2313L15.2524 18.7027C15.0622 18.8931 14.8045 19 14.5358 19C14.267 19 14.0093 18.8931 13.8191 18.7027Z" fill="#0E1B2C"/>
</svg>
